<?xml version="1.0" encoding="iso-8859-1"?>
<!-- Generator: Adobe Illustrator 16.0.0, SVG Export Plug-In . SVG Version: 6.00 Build 0)  -->
<!DOCTYPE svg PUBLIC "-//W3C//DTD SVG 1.1//EN" "http://www.w3.org/Graphics/SVG/1.1/DTD/svg11.dtd">
<svg version="1.1" id="Capa_1" xmlns="http://www.w3.org/2000/svg" xmlns:xlink="http://www.w3.org/1999/xlink" x="0px" y="0px"
	 width="477.855px" height="477.855px" viewBox="0 0 477.855 477.855" style="enable-background:new 0 0 477.855 477.855;"
	 xml:space="preserve">
<g>
	<g>
		<path d="M269.668,236.13c14.661-7.331,71.811-7.9,88.977-7.9c21.957,0,43.756,0.787,63.039,2.274l0.137,0.011
			c13.619,1.176,20.783,7.577,22.654,9.511l0.447,0.484l22.121,24.973V94.391H157.666v38.4c-1.133,0-2.167,0-3.271,0v148.435v8.345
			l71.049-18.211C235.724,262.035,258.945,241.49,269.668,236.13z"/>
		<path d="M150.315,282.305V132.524c0,0-66.369,0-87.477,0L8.201,203.14v44.371L0,256.076v26.246l31.957-0.018h11.232
			c-0.343,1.405-0.608,2.838-0.799,4.295H6.354l0.402,15.651h36.66c4.6,17.149,20.263,29.815,38.832,29.815
			c18.578,0,34.248-12.666,38.851-29.815h12.831h6.579l3.593-10.044l5.938-1.522V286.6h-7.659h-8.656h-11.602
			c-0.19-1.457-0.455-2.89-0.798-4.295h11.481H150.315L150.315,282.305z M82.25,311.109c-10.633,0-19.283-8.647-19.283-19.277
			c0-10.629,8.65-19.275,19.283-19.275c10.633,0,19.283,8.646,19.283,19.275S92.883,311.109,82.25,311.109z M33.588,200.452
			l36.667-51.167h63.666v51.167H33.588z"/>
		<path d="M477.855,354.266l-0.02-35.643l-8.125-25.486l-38.016-42.917c0,0-4.074-4.212-13.164-4.997
			c-60.613-4.676-133.256-1.361-144.152,4.087c-10.896,5.449-43.59,35.416-43.59,35.416l-77.245,19.8l-7.212,20.157l-6.747,5.913
			l4.619,24.461h5.473v8.21h27.628c4.432,11.8,15.814,20.198,29.162,20.198c16.277,0,29.632-12.49,31.019-28.407l158.617,0.002
			c1.389,15.916,14.74,28.405,31.02,28.405c13.348,0,24.729-8.398,29.162-20.198h16.676v-8.207h4.873
			c0-0.224-0.008-0.446-0.02-0.671L477.855,354.266z M206.463,363.811c-6.341,0-11.492-5.156-11.492-11.505
			c0-6.325,5.151-11.479,11.492-11.479c6.342,0,11.498,5.154,11.498,11.479C217.961,358.654,212.805,363.811,206.463,363.811z
			 M340.432,286.539h-76.521l21.707-27.135c0,0,35.265-2.961,54.813-3.258V286.539z M360.105,286.539v-30.392
			c30.797-0.678,53.592,2.272,53.592,2.272l22.93,28.119H360.105z M427.115,363.811c-6.34,0-11.49-5.156-11.49-11.505
			c0-6.325,5.15-11.479,11.49-11.479c6.344,0,11.498,5.154,11.498,11.479C438.615,358.654,433.459,363.811,427.115,363.811z"/>
	</g>
</g>
<g>
</g>
<g>
</g>
<g>
</g>
<g>
</g>
<g>
</g>
<g>
</g>
<g>
</g>
<g>
</g>
<g>
</g>
<g>
</g>
<g>
</g>
<g>
</g>
<g>
</g>
<g>
</g>
<g>
</g>
</svg>
