<svg height="480pt" viewBox="0 0 480 480" width="480pt" xmlns="http://www.w3.org/2000/svg"><path d="m456 0h-80c-13.253906 0-24 10.746094-24 24v32h-65.472656c-3.378906-9.554688-12.394532-15.957031-22.527344-16h-48c-10.132812.042969-19.148438 6.445312-22.527344 16h-65.472656v-32c0-13.253906-10.746094-24-24-24h-80c-13.253906 0-24 10.746094-24 24v112c0 13.253906 10.746094 24 24 24h80c13.253906 0 24-10.746094 24-24v-32h65.472656c3.378906 9.554688 12.394532 15.957031 22.527344 16v48h-8c-4.417969 0-8 3.582031-8 8v152h-16c-4.417969 0-8 3.582031-8 8v40h-48v-32c0-13.253906-10.746094-24-24-24h-80c-13.253906 0-24 10.746094-24 24v112c0 13.253906 10.746094 24 24 24h80c13.253906 0 24-10.746094 24-24v-32h48v24c0 4.417969 3.582031 8 8 8h112c4.417969 0 8-3.582031 8-8v-24h48v32c0 13.253906 10.746094 24 24 24h80c13.253906 0 24-10.746094 24-24v-112c0-13.253906-10.746094-24-24-24h-80c-13.253906 0-24 10.746094-24 24v32h-48v-40c0-4.417969-3.582031-8-8-8h-16v-152c0-4.417969-3.582031-8-8-8h-8v-48c10.132812-.042969 19.148438-6.445312 22.527344-16h65.472656v32c0 13.253906 10.746094 24 24 24h80c13.253906 0 24-10.746094 24-24v-112c0-13.253906-10.746094-24-24-24zm-46.398438 44.800781c1.507813 2.011719 3.878907 3.199219 6.398438 3.199219s4.890625-1.1875 6.398438-3.199219l9.601562-12.800781v21.335938l-16 21.328124-16-21.328124v-21.335938zm-1.601562-28.800781h16l-8 10.664062zm-8 64 9.601562 12.800781c1.507813 2.011719 3.878907 3.199219 6.398438 3.199219s4.890625-1.1875 6.398438-3.199219l9.601562-12.800781v21.335938l-16 21.328124-16-21.328124zm-342.398438-35.199219c1.507813 2.011719 3.878907 3.199219 6.398438 3.199219s4.890625-1.1875 6.398438-3.199219l9.601562-12.800781v21.335938l-16 21.328124-16-21.328124v-21.335938zm-1.601562-28.800781h16l-8 10.664062zm-8 64 9.601562 12.800781c1.507813 2.011719 3.878907 3.199219 6.398438 3.199219s4.890625-1.1875 6.398438-3.199219l9.601562-12.800781v21.335938l-16 21.328124-16-21.328124zm-32 56v-112c0-4.417969 3.582031-8 8-8h8v128h-8c-4.417969 0-8-3.582031-8-8zm32 8v-16l9.601562 12.800781c1.507813 2.011719 3.878907 3.199219 6.398438 3.199219s4.890625-1.1875 6.398438-3.199219l9.601562-12.800781v16zm64-8c0 4.417969-3.582031 8-8 8h-8v-128h8c4.417969 0 8 3.582031 8 8zm16-64h64v16h-64zm-70.398438 292.800781c1.507813 2.011719 3.878907 3.199219 6.398438 3.199219s4.890625-1.1875 6.398438-3.199219l9.601562-12.800781v21.335938l-16 21.328124-16-21.328124v-21.335938zm-1.601562-28.800781h16l-8 10.664062zm-8 64 9.601562 12.800781c1.507813 2.011719 3.878907 3.199219 6.398438 3.199219s4.890625-1.1875 6.398438-3.199219l9.601562-12.800781v21.335938l-16 21.328124-16-21.328124zm-32 56v-112c0-4.417969 3.582031-8 8-8h8v128h-8c-4.417969 0-8-3.582031-8-8zm32 8v-16l9.601562 12.800781c1.507813 2.011719 3.878907 3.199219 6.398438 3.199219s4.890625-1.1875 6.398438-3.199219l9.601562-12.800781v16zm64-8c0 4.417969-3.582031 8-8 8h-8v-128h8c4.417969 0 8 3.582031 8 8zm16-48v-16h48v16zm272-8 9.601562 12.800781c1.507813 2.011719 3.878907 3.199219 6.398438 3.199219s4.890625-1.1875 6.398438-3.199219l9.601562-12.800781v21.335938l-16 21.328124-16-21.328124zm9.601562-35.199219c1.507813 2.011719 3.878907 3.199219 6.398438 3.199219s4.890625-1.1875 6.398438-3.199219l9.601562-12.800781v21.335938l-16 21.328124-16-21.328124v-21.335938zm-1.601562-28.800781h16l-8 10.664062zm-8 128v-16l9.601562 12.800781c1.507813 2.011719 3.878907 3.199219 6.398438 3.199219s4.890625-1.1875 6.398438-3.199219l9.601562-12.800781v16zm64-120v112c0 4.417969-3.582031 8-8 8h-8v-128h8c4.417969 0 8 3.582031 8 8zm-96 0c0-4.417969 3.582031-8 8-8h8v128h-8c-4.417969 0-8-3.582031-8-8zm-16 48v16h-48v-16zm-80-48h16v96h-96v-96h16c4.417969 0 8-3.582031 8-8v-152h48v152c0 4.417969 3.582031 8 8 8zm-24-176h-16v-48h16zm16-64h-48c-4.417969 0-8-3.582031-8-8v-32c0-4.417969 3.582031-8 8-8h48c4.417969 0 8 3.582031 8 8v32c0 4.417969-3.582031 8-8 8zm24-16v-16h64v16zm80 48v-112c0-4.417969 3.582031-8 8-8h8v128h-8c-4.417969 0-8-3.582031-8-8zm32 8v-16l9.601562 12.800781c1.507813 2.011719 3.878907 3.199219 6.398438 3.199219s4.890625-1.1875 6.398438-3.199219l9.601562-12.800781v16zm64-8c0 4.417969-3.582031 8-8 8h-8v-128h8c4.417969 0 8 3.582031 8 8zm0 0"/><path d="m216 408c-4.417969 0-8 3.582031-8 8s3.582031 8 8 8h48c4.417969 0 8-3.582031 8-8s-3.582031-8-8-8zm0 0"/><path d="m248 72h-16c-4.417969 0-8 3.582031-8 8s3.582031 8 8 8h16c4.417969 0 8-3.582031 8-8s-3.582031-8-8-8zm0 0"/></svg>