<svg id="Capa_1" enable-background="new 0 0 512 512" height="512" viewBox="0 0 512 512" width="512" xmlns="http://www.w3.org/2000/svg"><g><path d="m504.817 239.58c-20.71-24.837-44.924-46.377-71.97-64.022-3.468-2.263-8.113-1.286-10.378 2.184-2.263 3.468-1.286 8.114 2.183 10.378 25.795 16.829 48.891 37.375 68.646 61.065 4.158 4.988 4.867 11.915 1.804 17.648l-52.187 97.69c-3.096 5.797-9.104 9.398-15.675 9.398h-224.833c-4.142 0-7.499 3.357-7.499 7.499 0 4.143 3.358 7.5 7.499 7.5h224.833c12.119 0 23.194-6.64 28.904-17.33l52.187-97.691c5.955-11.147 4.575-24.618-3.514-34.319z"/><path d="m167.41 373.921h-82.65c-6.572 0-12.579-3.601-15.676-9.398l-52.187-97.69c-3.062-5.733-2.353-12.66 1.806-17.649 58.878-70.609 145.369-111.105 237.297-111.105 48.214 0 96.317 11.417 139.107 33.015 3.698 1.866 8.208.381 10.074-3.315 1.866-3.698.382-8.208-3.315-10.074-44.877-22.652-95.316-34.624-145.866-34.624-96.39 0-187.08 42.461-248.816 116.498-8.09 9.702-9.47 23.174-3.516 34.321l52.187 97.69c5.711 10.689 16.786 17.33 28.905 17.33h82.65c4.142 0 7.499-3.357 7.499-7.5 0-4.142-3.357-7.499-7.499-7.499z"/><path d="m256 286.331c-7.777 0-14.699 3.721-19.087 9.474l-19.324-6.82c-3.906-1.379-8.19.671-9.567 4.576-1.379 3.906.67 8.189 4.576 9.567l19.413 6.852c-.002.117-.009.231-.009.349 0 13.232 10.765 23.998 23.998 23.998s23.998-10.766 23.998-23.998-10.766-23.998-23.998-23.998zm0 32.997c-4.962 0-8.999-4.037-8.999-8.999s4.037-8.999 8.999-8.999 8.999 4.037 8.999 8.999-4.037 8.999-8.999 8.999z"/><path d="m36.427 250.084c-4.724 5.271-5.656 13.008-2.319 19.255l43.612 81.64c2.947 5.517 8.662 8.943 14.916 8.943h326.728c6.254 0 11.969-3.426 14.916-8.942l43.613-81.641c3.338-6.247 2.405-13.985-2.319-19.255-56.104-62.589-135.467-98.006-219.574-98.006-83.711 0-163.742 35.722-219.573 98.006zm427.977 10.012c.533.594.637 1.468.259 2.176l-43.613 81.641c-.333.623-.979 1.011-1.686 1.011h-326.728c-.707 0-1.353-.388-1.686-1.011l-43.613-81.641c-.378-.708-.274-1.582.259-2.177 52.989-59.115 128.949-93.019 208.404-93.019s155.415 33.904 208.404 93.02z"/><path d="m166.858 271.725c-7.397-4.66-15.966-7.166-24.928-7.166-25.849 0-46.879 21.032-46.879 46.884 0 6.642 1.369 13.069 4.068 19.104 1.246 2.786 3.983 4.439 6.85 4.439 1.023 0 2.063-.211 3.058-.655 3.781-1.691 5.474-6.127 3.783-9.908-1.832-4.095-2.76-8.462-2.76-12.979 0-17.582 14.302-31.886 31.881-31.886 7.007 0 13.664 2.245 19.158 6.388-3.016 9.494-4.649 19.599-4.649 30.079 0 4.032.26 8.082.794 12.383.511 4.111 4.259 7.033 8.366 6.518 4.11-.51 7.028-4.255 6.518-8.365-.458-3.683-.68-7.129-.68-10.536 0-46.626 37.934-84.559 84.562-84.559 46.626 0 84.56 37.933 84.56 84.559 0 3.405-.223 6.851-.68 10.536-.511 4.11 2.407 7.855 6.517 8.365.314.039.626.059.935.059 3.729 0 6.961-2.78 7.432-6.577.535-4.304.795-8.354.795-12.383 0-10.48-1.633-20.586-4.649-30.081 5.494-4.142 12.15-6.387 19.157-6.387 17.579 0 31.881 14.304 31.881 31.886 0 4.518-.929 8.885-2.76 12.979-1.691 3.781.003 8.217 3.784 9.908.995.444 2.034.655 3.058.655 2.866 0 5.603-1.653 6.85-4.439 2.699-6.034 4.067-12.461 4.067-19.104 0-25.852-21.03-46.884-46.879-46.884-8.961 0-17.529 2.506-24.926 7.166-16.331-32.724-50.152-55.257-89.142-55.257-38.991 0-72.812 22.533-89.142 55.258z"/><path d="m141.931 306.42-8.377-4.836c-3.587-2.071-8.174-.843-10.244 2.745-2.071 3.587-.842 8.173 2.745 10.244l8.377 4.836c1.181.682 2.47 1.006 3.743 1.006 2.592 0 5.112-1.345 6.501-3.75 2.071-3.588.842-8.174-2.745-10.245z"/><path d="m378.446 301.583-8.377 4.836c-3.587 2.071-4.816 6.657-2.745 10.244 1.388 2.406 3.91 3.75 6.501 3.75 1.272 0 2.562-.324 3.743-1.006l8.377-4.836c3.587-2.071 4.816-6.657 2.745-10.244-2.07-3.586-6.659-4.814-10.244-2.744z"/><path d="m263.499 246.808v-3c0-4.142-3.357-7.499-7.499-7.499s-7.499 3.357-7.499 7.499v3c0 4.142 3.358 7.499 7.499 7.499 4.142 0 7.499-3.357 7.499-7.499z"/><path d="m216.387 270.715c2.929-2.929 2.929-7.677 0-10.606l-2.121-2.121c-2.928-2.928-7.677-2.928-10.605 0-2.929 2.929-2.929 7.677 0 10.606l2.121 2.121c1.464 1.464 3.384 2.196 5.303 2.196 1.918 0 3.837-.732 5.302-2.196z"/><path d="m192.479 302.828h-3c-4.142 0-7.499 3.357-7.499 7.5s3.358 7.499 7.499 7.499h3c4.142 0 7.499-3.357 7.499-7.499s-3.357-7.5-7.499-7.5z"/><path d="m322.52 302.829h-3c-4.142 0-7.499 3.357-7.499 7.5s3.357 7.499 7.499 7.499h3c4.142 0 7.499-3.357 7.499-7.499s-3.357-7.5-7.499-7.5z"/><path d="m297.736 257.987-2.122 2.121c-2.929 2.928-2.93 7.676-.003 10.605 1.465 1.466 3.384 2.198 5.304 2.198 1.919 0 3.837-.731 5.301-2.195l2.122-2.121c2.929-2.928 2.93-7.676.003-10.605-2.929-2.931-7.678-2.93-10.605-.003z"/><path d="m350.113 244.623c1.446 2.163 3.822 3.333 6.241 3.333 1.433 0 2.881-.41 4.161-1.266l15.53-10.383c2.638-1.763 4.214-4.71 4.214-7.884s-1.575-6.122-4.213-7.884l-15.531-10.383c-3.442-2.299-8.1-1.375-10.402 2.067-2.302 3.443-1.376 8.1 2.067 10.402l8.672 5.797-8.672 5.797c-3.443 2.304-4.369 6.961-2.067 10.404z"/><path d="m135.954 236.308 15.53 10.383c1.281.855 2.728 1.266 4.161 1.266 2.42 0 4.795-1.17 6.241-3.333 2.302-3.443 1.377-8.1-2.066-10.402l-8.672-5.797 8.672-5.797c3.443-2.303 4.368-6.959 2.066-10.402s-6.96-4.368-10.402-2.067l-15.527 10.381c-2.64 1.764-4.216 4.711-4.216 7.886 0 3.172 1.576 6.12 4.213 7.882z"/></g></svg>